<svg xmlns="http://www.w3.org/2000/svg" xmlns:xlink="http://www.w3.org/1999/xlink" version="1.1" id="Your_Icon" x="0px" y="0px" viewBox="0 0 100 100" enable-background="new 0 0 100 100" xml:space="preserve" height="100px" width="100px">
<g>
	<path fill="#000000" d="M91.791,12.632c-0.055-0.072-0.122-0.127-0.179-0.195c-1.128-1.4-2.854-2.298-4.792-2.298   c-2.177,0-4.085,1.134-5.179,2.84H41.166L35.074,5c-17.679,13.498-21.068,38.771-7.57,56.45   c13.498,17.679,38.77,21.068,56.45,7.571l-6.251-8.187l9.762-38.26c1.11-0.11,2.206-0.5,3.157-1.227   C93.352,19.263,93.875,15.361,91.791,12.632z M57.478,34.343L44.265,17.038h35.363L57.478,34.343z M74.084,56.094L60.194,37.9   l22.337-17.056c0.198,0.193,0.405,0.366,0.623,0.527L74.084,56.094z"/>
	<polygon fill="#000000" points="6.933,95 45.747,95 26.34,68.888  "/>
</g>
</svg>