<svg xmlns="http://www.w3.org/2000/svg" xmlns:xlink="http://www.w3.org/1999/xlink" version="1.1" id="Layer_1" x="0px" y="0px" width="50px" height="50px" viewBox="0 0 50 50" enable-background="new 0 0 50 50" xml:space="preserve">
<g>
	<path fill="#000000" d="M48.566,17.305v-1.646h-7.719c-0.469-3.736-3.691-6.628-7.605-6.628h-0.16V1.506h-1.67V9.03h-2.34V1.506   h-1.67V9.03h-2.339V1.506h-1.67V9.03h-2.338V1.506h-1.671V9.03h-2.339V1.506h-1.669v7.544c-3.737,0.184-6.767,2.999-7.22,6.608   H1.433v1.649h6.658v2.305H1.433v1.649h6.658v2.305H1.433v1.646h6.658v2.306H1.433v1.648h6.658v2.307H1.433v1.648h6.658v0.709   c0,4.051,3.228,7.346,7.284,7.545v7.117h1.669v-7.096h2.339v7.096h1.671v-7.096h2.338v7.096h1.67v-7.096h2.339v7.096h1.67v-7.096   h2.34v7.096h1.67v-7.096h0.16c4.236,0,7.67-3.391,7.67-7.566v-0.713h7.654v-1.645h-7.654v-2.307h7.654V27.52h-7.654v-2.306h7.654   v-1.646h-7.654v-2.308h7.654v-1.646h-7.654v-2.308H48.566z"/>
</g>
</svg>