<svg xmlns="http://www.w3.org/2000/svg" xmlns:xlink="http://www.w3.org/1999/xlink" version="1.1" id="Layer_9" x="0px" y="0px" width="100px" height="100px" viewBox="0 0 100 100" enable-background="new 0 0 100 100" xml:space="preserve">
<g>
	<path d="M73.261,14.1L40.899,46.459L5.505,61.629l7.079,7.081l9.103-1.014l-6.07,4.044l13.148,13.146l4.044-6.066l-1.011,9.102   L38.876,95l15.169-35.394l32.36-32.361L94.494,5L73.261,14.1z M77.81,29.775c-1.953,1.953-5.126,1.953-7.08,0   c-1.954-1.956-1.954-5.125,0-7.079c1.956-1.955,5.127-1.955,7.08,0C79.764,24.65,79.764,27.819,77.81,29.775z"/>
	<path d="M15.617,73.764c-8.088,8.089-5.559,16.686-5.559,16.686s8.593,2.526,16.683-5.562l-5.561-5.562L15.617,73.764z"/>
</g>
</svg>